<?xml version="1.0" encoding="UTF-8"?>
<svg fill="none" viewBox="0 0 22 19" xmlns="http://www.w3.org/2000/svg">
<path d="m20.299 9.7859c2.2679-2.2425 2.2679-5.8837 0-8.104-2.268-2.2425-5.9505-2.2425-8.2185 0l-1.1002 1.1101-1.1003-1.0879c-2.2679-2.2647-5.9505-2.2647-8.196-0.0222-1.1003 1.0879-1.6841 2.5311-1.6841 4.0631s0.60628 2.9752 1.6841 4.0631l9.2963 9.1919 9.3187-9.2141zm-18.862-4.0409c0-1.1545 0.4491-2.2203 1.2799-3.0196 0.85328-0.84371 1.9536-1.2656 3.0538-1.2656s2.2006 0.42185 3.0538 1.2656l2.1557 2.1093 2.1556-2.1315c1.6841-1.6652 4.446-1.6652 6.1077 0 0.8084 0.7993 1.2799 1.865 1.2799 3.0196 0 1.1545-0.4491 2.2203-1.2799 3.0196l-8.2633 8.1928-8.2634-8.1706c-0.80837-0.8215-1.2799-1.8872-1.2799-3.0196z" fill="#000"/>
</svg>
